#N canvas 49 87 1317 686 10;
#X declare -lib mrpeach;
#X obj 2 26 import mrpeach;
#X obj 225 254 packOSC;
#X obj 253 483 udpsend;
#X msg 76 372 connect 127.0.0.1 9000;
#X obj 76 345 loadbang;
#X msg 10 96 send /work/debug reload;
#X msg 164 -14 send /work/load \$1;
#X obj 267 214 r OSC;
#N canvas 49 54 1317 714 cellos 0;
#X floatatom 310 247 15 0 0 0 - - -;
#X obj 309 222 maxlib/scale 0 127 0 1;
#X floatatom 162 373 15 0 0 0 - - -;
#X obj 161 348 maxlib/scale 0 127 0 1;
#X obj 161 322 ctlin 4 1;
#X floatatom 366 376 15 0 0 0 - - -;
#X obj 365 351 maxlib/scale 0 127 0 1;
#X floatatom 548 372 15 0 0 0 - - -;
#X obj 547 347 maxlib/scale 0 127 0 1;
#X floatatom 754 373 15 0 0 0 - - -;
#X obj 753 348 maxlib/scale 0 127 0 1;
#X obj 365 325 ctlin 5 1;
#X obj 547 321 ctlin 6 1;
#X obj 753 322 ctlin 7 1;
#X obj 421 464 outlet;
#X msg 309 271 send /cellos/cellos-detune \$1;
#X msg 161 398 send /cellos/cellos-gain1 \$1;
#X msg 364 399 send /cellos/cellos-gain2 \$1;
#X msg 547 397 send /cellos/cellos-gain3 \$1;
#X msg 753 399 send /cellos/cellos-gain4 \$1;
#X obj 309 196 ctlin 1 1;
#X floatatom 119 246 15 0 0 0 - - -;
#X msg 118 271 send /cellos/volume \$1;
#X obj 118 195 ctlin 0 1;
#X obj 327 89 sel 127;
#X obj 578 94 sel 127;
#X obj 383 90 bng 15 250 50 0 empty empty empty 17 7 0 10 -262144 -1
-1;
#X obj 632 95 bng 15 250 50 0 empty empty empty 17 7 0 10 -262144 -1
-1;
#X obj 327 62 ctlin 0 2;
#X obj 578 66 ctlin 1 2;
#X msg 327 114 send /cellos/state 1;
#X msg 578 119 send /cellos/state 0;
#X obj 118 221 maxlib/scale 0 127 0 3;
#X connect 0 0 15 0;
#X connect 1 0 0 0;
#X connect 2 0 16 0;
#X connect 3 0 2 0;
#X connect 4 0 3 0;
#X connect 5 0 17 0;
#X connect 6 0 5 0;
#X connect 7 0 18 0;
#X connect 8 0 7 0;
#X connect 9 0 19 0;
#X connect 10 0 9 0;
#X connect 11 0 6 0;
#X connect 12 0 8 0;
#X connect 13 0 10 0;
#X connect 15 0 14 0;
#X connect 16 0 14 0;
#X connect 17 0 14 0;
#X connect 18 0 14 0;
#X connect 19 0 14 0;
#X connect 20 0 1 0;
#X connect 21 0 22 0;
#X connect 22 0 14 0;
#X connect 23 0 32 0;
#X connect 24 0 30 0;
#X connect 24 0 26 0;
#X connect 25 0 31 0;
#X connect 25 0 27 0;
#X connect 28 0 24 0;
#X connect 29 0 25 0;
#X connect 30 0 14 0;
#X connect 31 0 14 0;
#X connect 32 0 21 0;
#X restore 636 29 pd cellos;
#X obj 636 58 s OSC;
#X obj 727 56 s OSC;
#N canvas 49 54 1317 714 shepard-cellos 0;
#X floatatom 358 201 15 0 0 0 - - -;
#X obj 410 429 outlet;
#X obj 357 176 maxlib/scale 0 127 2 10;
#X floatatom 637 194 15 0 0 0 - - -;
#X obj 636 169 maxlib/scale 0 127 10000 40000;
#X floatatom 62 197 15 0 0 0 - - -;
#X msg 356 224 send /shepard-cellos/shepard-cellos-range \$1;
#X msg 635 217 send /shepard-cellos/shepard-cellos-env \$1;
#X msg 59 220 send /shepard-cellos/volume \$1;
#X obj 265 54 bng 15 250 50 0 empty empty empty 17 7 0 10 -262144 -1
-1;
#X obj 61 172 maxlib/scale 0 127 0 2;
#X obj 197 25 ctlin 8 2;
#X obj 197 53 / 127;
#X msg 197 81 send /shepard-cellos/state \$1;
#X obj 61 146 ctlin 8 1;
#X obj 357 151 ctlin 9 1;
#X obj 636 143 ctlin 10 1;
#X connect 0 0 6 0;
#X connect 2 0 0 0;
#X connect 3 0 7 0;
#X connect 4 0 3 0;
#X connect 5 0 8 0;
#X connect 6 0 1 0;
#X connect 7 0 1 0;
#X connect 8 0 1 0;
#X connect 10 0 5 0;
#X connect 11 0 12 0;
#X connect 12 0 13 0;
#X connect 12 0 9 0;
#X connect 13 0 1 0;
#X connect 14 0 10 0;
#X connect 15 0 2 0;
#X connect 16 0 4 0;
#X restore 727 31 pd shepard-cellos;
#X obj 912 68 s OSC;
#N canvas 49 54 1317 714 percussion-sequence 0;
#X floatatom 310 247 15 0 0 0 - - -;
#X obj 309 222 maxlib/scale 0 127 0 1;
#X obj 421 464 outlet;
#X obj 309 196 ctlin 1 1;
#X floatatom 608 91 15 0 0 0 - - -;
#X obj 607 40 ctlin 0 1;
#X obj 327 62 ctlin 0 2;
#X obj 607 66 maxlib/scale 0 127 0 3;
#X obj 327 89 / 127;
#X msg 327 118 send /percussion-sequence/state \$1;
#X msg 607 117 send /percussion-sequence/volume \$1;
#X obj 377 94 tgl 15 0 empty empty empty 17 7 0 10 -262144 -1 -1 0
1;
#X floatatom 865 96 15 0 0 0 - - -;
#X obj 864 45 ctlin 0 1;
#X obj 864 71 maxlib/scale 0 127 0 3;
#X msg 863 122 send /percussion-sequence/metroperc \$1;
#X msg 309 271 send /percussion-sequence/percfrequency \$1;
#X floatatom 595 243 15 0 0 0 - - -;
#X msg 594 267 send /percussion-sequence/percsec \$1;
#X floatatom 843 245 15 0 0 0 - - -;
#X msg 841 269 send /percussion-sequence/percfeedback \$1;
#X connect 0 0 16 0;
#X connect 1 0 0 0;
#X connect 3 0 1 0;
#X connect 4 0 10 0;
#X connect 5 0 7 0;
#X connect 6 0 8 0;
#X connect 7 0 4 0;
#X connect 8 0 9 0;
#X connect 8 0 11 0;
#X connect 9 0 2 0;
#X connect 10 0 2 0;
#X connect 11 0 9 0;
#X connect 12 0 15 0;
#X connect 13 0 14 0;
#X connect 14 0 12 0;
#X connect 15 0 2 0;
#X connect 16 0 2 0;
#X connect 17 0 18 0;
#X connect 18 0 2 0;
#X connect 19 0 20 0;
#X connect 20 0 2 0;
#X restore 912 39 pd percussion-sequence;
#X obj 830 146 s OSC;
#N canvas 49 54 1317 714 karplus 1;
#X floatatom 310 247 15 0 0 0 - - -;
#X obj 421 464 outlet;
#X floatatom 608 91 15 0 0 0 - - -;
#X obj 327 62 ctlin 0 2;
#X obj 327 89 / 127;
#X obj 377 94 tgl 15 0 empty empty empty 17 7 0 10 -262144 -1 -1 1
1;
#X floatatom 595 243 15 0 0 0 - - -;
#X floatatom 843 245 15 0 0 0 - - -;
#X msg 327 118 send /karplus/state \$1;
#X msg 607 118 send /karplus/volume \$1;
#X msg 308 272 send /karplus/karpusfrequency \$1;
#X msg 594 267 send /karplus/karpuscsec \$1;
#X msg 840 269 send /karplus/karpusfeedback \$1;
#X msg 1056 234 send /karplus/karplusselfrequency \$1;
#X msg 964 132 0;
#X msg 1006 134 1;
#X msg 1046 136 2;
#X msg 1080 138 3;
#X floatatom 798 68 15 0 0 0 - - -;
#X msg 797 95 send /karplus/metro2 \$1;
#X connect 0 0 10 0;
#X connect 2 0 9 0;
#X connect 3 0 4 0;
#X connect 4 0 8 0;
#X connect 4 0 5 0;
#X connect 5 0 8 0;
#X connect 6 0 11 0;
#X connect 7 0 12 0;
#X connect 8 0 1 0;
#X connect 9 0 1 0;
#X connect 10 0 1 0;
#X connect 11 0 1 0;
#X connect 12 0 1 0;
#X connect 13 0 1 0;
#X connect 14 0 13 0;
#X connect 15 0 13 0;
#X connect 16 0 13 0;
#X connect 17 0 13 0;
#X connect 18 0 19 0;
#X connect 19 0 1 0;
#X restore 830 117 pd karplus;
#X connect 1 0 2 0;
#X connect 3 0 2 0;
#X connect 4 0 3 0;
#X connect 5 0 1 0;
#X connect 6 0 1 0;
#X connect 7 0 1 0;
#X connect 8 0 9 0;
#X connect 11 0 10 0;
#X connect 13 0 12 0;
#X connect 15 0 14 0;
