#N canvas 49 54 1317 714 10;
#X declare -lib mrpeach;
#X obj 2 26 import mrpeach;
#X obj 225 254 packOSC;
#X obj 153 28 tgl 15 0 empty empty empty 17 7 0 10 -262144 -1 -1 1
1;
#X obj 289 35 hsl 128 15 0 2 0 0 empty empty empty -2 -8 0 10 -262144
-1 -1 12000 1;
#X obj 253 483 udpsend;
#X msg 76 372 connect 127.0.0.1 9000;
#X obj 76 345 loadbang;
#X msg 153 64 send /work/state \$1;
#X msg 10 96 send /work/debug reload;
#X msg 286 64 send /work/volume \$1;
#X obj 286 7 maxlib/scale 0 127 1e-06 1 0.5;
#X obj 286 -19 ctlin 0 1;
#X msg 164 -14 send /work/load \$1;
#X obj 546 -14 ctlin 3 1;
#X floatatom 546 37 15 0 0 0 - - -;
#X obj 546 12 maxlib/scale 0 127 100 1000;
#X msg 546 61 send /work/tempo \$1;
#X floatatom 768 40 15 0 0 0 - - -;
#X msg 768 64 send /work/proba \$1;
#X obj 768 -11 ctlin 7 1;
#X obj 768 15 maxlib/scale 0 127 0 10;
#X floatatom 581 537 15 0 0 0 - - -;
#X obj 581 486 ctlin 12 1;
#X msg 581 560 send /work/volume \$1;
#X obj 581 512 maxlib/scale 0 127 1e-09 2 0.2;
#X msg 786 558 send /work/PLAY \$1;
#X obj 786 511 sel 127;
#X obj 786 532 bng 15 250 50 0 empty empty empty 17 7 0 10 -262144
-1 -1;
#X obj 786 484 ctlin 13 2;
#X floatatom 936 531 15 0 0 0 - - -;
#X obj 936 480 ctlin 13 1;
#X obj 936 506 maxlib/scale 0 127 1 500 0.2;
#X floatatom 1143 531 15 0 0 0 - - -;
#X obj 1143 480 ctlin 14 1;
#X msg 1143 554 send /work/feedback \$1;
#X msg 936 557 send /work/delaytime \$1;
#X obj 1143 506 maxlib/scale 0 127 0 1;
#X obj 619 176 ctlin 3 1;
#X floatatom 620 227 15 0 0 0 - - -;
#X obj 619 202 maxlib/scale 0 127 100 1000;
#X msg 619 251 send /work/cellos-detune \$1;
#X connect 1 0 4 0;
#X connect 2 0 7 0;
#X connect 3 0 9 0;
#X connect 5 0 4 0;
#X connect 6 0 5 0;
#X connect 7 0 1 0;
#X connect 8 0 1 0;
#X connect 9 0 1 0;
#X connect 10 0 3 0;
#X connect 11 0 10 0;
#X connect 12 0 1 0;
#X connect 13 0 15 0;
#X connect 14 0 16 0;
#X connect 15 0 14 0;
#X connect 16 0 1 0;
#X connect 17 0 18 0;
#X connect 18 0 1 0;
#X connect 19 0 20 0;
#X connect 20 0 17 0;
#X connect 21 0 23 0;
#X connect 22 0 24 0;
#X connect 23 0 1 0;
#X connect 24 0 21 0;
#X connect 25 0 1 0;
#X connect 26 0 27 0;
#X connect 27 0 25 0;
#X connect 28 0 26 0;
#X connect 29 0 35 0;
#X connect 30 0 31 0;
#X connect 31 0 29 0;
#X connect 32 0 34 0;
#X connect 33 0 36 0;
#X connect 34 0 1 0;
#X connect 35 0 1 0;
#X connect 36 0 32 0;
#X connect 37 0 39 0;
#X connect 38 0 40 0;
#X connect 39 0 38 0;
#X connect 40 0 1 0;
