#N canvas 364 106 929 672 10;
#X obj 109 81 soundfiler;
#X floatatom 109 107 20 0 0 0 - - -;
#X obj 156 235 samplerate~;
#X obj 188 80 table SAMPLE 100;
#X obj 84 544 tabread~ SAMPLE;
#X obj 93 259 /;
#X obj 93 282 * 1000;
#X obj 84 378 metro;
#X obj 84 520 line~;
#X obj 84 350 trigger bang float;
#X obj 84 404 trigger bang bang;
#X msg 183 430 0;
#X obj 63 456 pack float float;
#X obj 84 430 float;
#X obj 109 27 loadbang;
#X obj 109 133 print LOADED;
#X obj 84 593 outlet~;
#X obj 84 568 *~ 0.8;
#X msg 109 53 read -resize assets/sounds/car.wav SAMPLE;
#X obj 86 211 trigger float bang float;
#X connect 0 0 1 0;
#X connect 1 0 15 0;
#X connect 1 0 19 0;
#X connect 2 0 5 1;
#X connect 4 0 17 0;
#X connect 5 0 6 0;
#X connect 6 0 9 0;
#X connect 7 0 10 0;
#X connect 8 0 4 0;
#X connect 9 0 7 0;
#X connect 9 1 7 1;
#X connect 9 1 12 1;
#X connect 10 0 13 0;
#X connect 10 1 11 0;
#X connect 11 0 8 0;
#X connect 12 0 8 0;
#X connect 13 0 12 0;
#X connect 14 0 18 0;
#X connect 17 0 16 0;
#X connect 18 0 0 0;
#X connect 19 0 5 0;
#X connect 19 1 2 0;
#X connect 19 2 13 1;
